<?xml version="1.0" encoding="UTF-8"?>
<svg version="1.1" xmlns="http://www.w3.org/2000/svg" width="3264" height="1836">
<path d="M0 0 C3.30774503 0.0053709 6.61535469 0.00001103 9.9230957 -0.00634766 C27.65939631 -0.01362185 45.14908168 0.5152107 62.74536133 2.88037109 C63.39634796 2.96651672 64.04733459 3.05266235 64.7180481 3.14141846 C130.76634653 11.9210057 198.98559119 32.4476103 250.10083008 76.88037109 C252.72154138 79.19877187 252.72154138 79.19877187 255.74536133 81.13037109 C255.74536133 81.79037109 255.74536133 82.45037109 255.74536133 83.13037109 C256.33446289 83.38173828 256.92356445 83.63310547 257.53051758 83.89208984 C260.02180335 85.2849251 261.36836547 86.75122829 263.18286133 88.94287109 C265.11717237 91.26314676 267.06231673 93.44682259 269.20239258 95.58349609 C291.03706217 117.45170589 305.72508065 149.10161204 306.12573242 180.13891602 C306.10676527 192.68913641 305.50275475 204.12829656 301.74536133 216.13037109 C301.41592529 217.21366699 301.41592529 217.21366699 301.07983398 218.31884766 C293.20554929 243.71940651 277.44467513 264.59202699 258.74536133 283.13037109 C259.87586914 282.91380859 261.00637695 282.69724609 262.17114258 282.47412109 C272.36455375 280.66212639 282.32516498 279.82940126 292.68286133 279.81787109 C293.78218994 279.81271484 294.88151855 279.80755859 296.01416016 279.80224609 C317.12898154 279.97942898 336.40540783 285.49682811 352.74536133 299.13037109 C353.61161133 299.72849609 354.47786133 300.32662109 355.37036133 300.94287109 C361.9040702 306.96076084 366.14557457 315.10837439 369.74536133 323.13037109 C370.09598633 323.89865234 370.44661133 324.66693359 370.80786133 325.45849609 C377.76854168 345.29643511 372.45458298 368.84089157 363.73754883 387.27099609 C360.59394226 393.55820923 356.69730991 399.33178472 352.74536133 405.13037109 C351.83657227 406.5515625 351.83657227 406.5515625 350.90942383 408.00146484 C350.3809082 408.82775391 349.85239258 409.65404297 349.30786133 410.50537109 C348.85540039 411.21435547 348.40293945 411.92333984 347.93676758 412.65380859 C347.54360352 413.14107422 347.15043945 413.62833984 346.74536133 414.13037109 C346.08536133 414.13037109 345.42536133 414.13037109 344.74536133 414.13037109 C344.48368164 414.70916016 344.22200195 415.28794922 343.95239258 415.88427734 C342.67243394 418.2660774 341.23180079 420.05353756 339.43286133 422.06787109 C338.57241211 423.04046875 338.57241211 423.04046875 337.69458008 424.03271484 C335.43799598 426.46114302 333.10139678 428.79866647 330.74536133 431.13037109 C331.23004883 431.95537109 331.71473633 432.78037109 332.21411133 433.63037109 C340.5711699 447.97511049 347.60366819 462.67223716 353.87670898 478.04101562 C354.70958947 480.04432962 355.58931478 482.02145965 356.47583008 484.00146484 C357.74536133 487.13037109 357.74536133 487.13037109 357.74536133 490.13037109 C342.8551994 490.34076221 327.96515276 490.49939218 313.07382011 490.59668064 C306.15914046 490.64305813 299.2453851 490.70626409 292.33129883 490.80932617 C285.65925516 490.90873279 278.98837008 490.96092169 272.31555557 490.98426628 C269.7693075 491.00090271 267.22311232 491.03339091 264.6772728 491.0819416 C261.11140981 491.14724328 257.54951851 491.15627502 253.9831543 491.15209961 C252.92939102 491.18445709 251.87562775 491.21681458 250.78993225 491.25015259 C243.7787695 491.16126631 243.7787695 491.16126631 240.80249405 488.19222832 C239.25234433 485.89737503 237.97788695 483.60766473 236.74536133 481.13037109 C235.97311742 479.85115445 235.19137486 478.57754244 234.39379883 477.31396484 C234.02391846 476.70335205 233.65403809 476.09273926 233.27294922 475.46362305 C225.61073438 462.86097567 216.80529004 451.16862312 207.04638672 440.11401367 C203.74536133 436.33555461 203.74536133 436.33555461 203.74536133 434.13037109 C202.75536133 433.80037109 201.76536133 433.47037109 200.74536133 433.13037109 C199.09692383 431.42333984 199.09692383 431.42333984 197.37036133 429.31787109 C194.71808419 426.17005173 191.98295863 423.68120533 188.74536133 421.13037109 C188.74536133 420.47037109 188.74536133 419.81037109 188.74536133 419.13037109 C188.18977539 418.89576172 187.63418945 418.66115234 187.06176758 418.41943359 C184.16874561 416.80948882 182.08143941 414.78737616 179.68286133 412.50537109 C174.33575999 407.56356866 168.723355 403.29314917 162.74536133 399.13037109 C161.93454102 398.54642578 161.1237207 397.96248047 160.28833008 397.36083984 C153.6500013 392.60998419 146.75398346 388.31036677 139.74536133 384.13037109 C138.87459961 383.60241943 138.00383789 383.07446777 137.10668945 382.53051758 C129.93273028 378.24554705 122.63920443 374.56242261 114.99536133 371.19287109 C113.8286792 370.67781006 112.66199707 370.16274902 111.45996094 369.63208008 C87.87572473 359.41059585 63.24528431 352.3782452 37.74536133 349.13037109 C36.93550781 349.02595703 36.1256543 348.92154297 35.29125977 348.81396484 C5.6409708 345.14109487 -24.03432103 347.14405855 -53.25463867 353.13037109 C-54.5050293 353.37013672 -55.75541992 353.60990234 -57.04370117 353.85693359 C-75.77719844 357.68878531 -95.33790688 364.2990902 -112.30786133 373.11865234 C-114.65904894 374.34053866 -117.02576925 375.53036128 -119.39135742 376.72412109 C-129.09866575 381.66930499 -138.3933373 386.77281692 -147.25463867 393.13037109 C-148.40228917 393.93097959 -149.55077093 394.73039742 -150.69995117 395.52880859 C-161.14567181 402.83047915 -170.96492413 410.70557369 -180.1965332 419.5012207 C-182.20437666 421.38936184 -183.97936377 422.99829719 -186.47729492 424.19677734 C-188.82310749 425.42897339 -189.14015201 426.76262899 -190.25463867 429.13037109 C-191.56329657 430.54875287 -192.92121512 431.92278346 -194.31713867 433.25537109 C-197.170358 435.90942109 -197.170358 435.90942109 -199.25463867 439.13037109 C-199.91463867 439.13037109 -200.57463867 439.13037109 -201.25463867 439.13037109 C-201.57948242 439.90960937 -201.57948242 439.90960937 -201.91088867 440.70458984 C-203.7940057 444.10405402 -206.28537091 446.96141897 -208.75463867 449.94287109 C-214.78570298 457.35719035 -220.12157233 465.07646157 -225.25463867 473.13037109 C-225.95331055 474.20931641 -226.65198242 475.28826172 -227.37182617 476.39990234 C-235.0024928 488.43972848 -240.92328366 501.07247724 -246.44213867 514.19287109 C-246.84609863 515.14911377 -247.25005859 516.10535645 -247.66625977 517.09057617 C-255.36882099 535.72006321 -259.47210266 554.40241004 -264.25463867 574.13037109 C-207.32963867 573.63537109 -207.32963867 573.63537109 -149.25463867 573.13037109 C-146.28463867 565.87037109 -143.31463867 558.61037109 -140.25463867 551.13037109 C-137.97845637 546.98846559 -135.76227484 543.09011775 -133.25463867 539.13037109 C-132.63459961 538.02435547 -132.01456055 536.91833984 -131.37573242 535.77880859 C-129.184865 531.91821004 -126.70559632 528.30456245 -124.12963867 524.69287109 C-123.68749023 524.05671875 -123.2453418 523.42056641 -122.78979492 522.76513672 C-121.6638115 521.18161623 -120.46483847 519.65050011 -119.25463867 518.13037109 C-118.59463867 518.13037109 -117.93463867 518.13037109 -117.25463867 518.13037109 C-116.98256592 517.53595215 -116.71049316 516.9415332 -116.43017578 516.32910156 C-103.55166283 492.24106675 -67.91732577 475.56031325 -43.37036133 467.66210938 C-9.42547146 457.49014544 28.69958245 457.75631874 61.74536133 471.13037109 C62.49221191 471.42959473 63.2390625 471.72881836 64.00854492 472.03710938 C80.19938971 478.62907175 94.12184751 487.23942354 107.74536133 498.13037109 C108.91518555 498.95408203 108.91518555 498.95408203 110.10864258 499.79443359 C110.64875977 500.23529297 111.18887695 500.67615234 111.74536133 501.13037109 C111.74536133 501.79037109 111.74536133 502.45037109 111.74536133 503.13037109 C112.73536133 503.46037109 113.72536133 503.79037109 114.74536133 504.13037109 C114.74536133 504.79037109 114.74536133 505.45037109 114.74536133 506.13037109 C115.40536133 506.13037109 116.06536133 506.13037109 116.74536133 506.13037109 C116.74536133 506.79037109 116.74536133 507.45037109 116.74536133 508.13037109 C117.70442383 508.53255859 117.70442383 508.53255859 118.68286133 508.94287109 C120.74536133 510.13037109 120.74536133 510.13037109 121.74536133 513.13037109 C122.6193457 513.53835938 122.6193457 513.53835938 123.51098633 513.95458984 C126.65318061 515.60808718 128.41527468 518.15208478 130.49536133 520.94287109 C130.93291748 521.52327148 131.37047363 522.10367188 131.82128906 522.70166016 C136.20242366 528.60268263 140.09885664 534.75073429 143.74536133 541.13037109 C144.11016602 541.7589502 144.4749707 542.3875293 144.85083008 543.03515625 C165.69890378 579.27914103 170.83585837 623.12368343 160.4465332 663.56884766 C157.61582331 673.91000651 153.39880376 683.48680306 148.74536133 693.13037109 C148.31868164 694.08169922 147.89200195 695.03302734 147.45239258 696.01318359 C140.76154353 710.41518711 130.78548512 722.84075298 119.74536133 734.13037109 C118.80156071 735.13455394 117.85886875 736.13977983 116.91723633 737.14599609 C88.6501703 766.90932961 47.43359594 782.18976363 6.90673828 783.48168945 C-31.71766613 783.90488693 -70.03783146 770.37579194 -99.25463867 745.13037109 C-100.07738281 744.42509277 -100.07738281 744.42509277 -100.91674805 743.70556641 C-122.91334784 724.66161688 -141.66483884 698.5638003 -149.25463867 670.13037109 C-149.25463867 669.14037109 -149.25463867 668.15037109 -149.25463867 667.13037109 C-205.68463867 667.62537109 -205.68463867 667.62537109 -263.25463867 668.13037109 C-259.00657875 687.00600007 -259.00657875 687.00600007 -253.44213867 705.38037109 C-253.12156998 706.32636673 -253.12156998 706.32636673 -252.79452515 707.29147339 C-247.59209446 722.62559877 -241.26444937 737.0510144 -233.25463867 751.13037109 C-232.90739746 751.7570166 -232.56015625 752.38366211 -232.20239258 753.02929688 C-223.28304025 769.10755169 -212.5142583 783.77811036 -200.36401367 797.56396484 C-198.58493327 799.72851267 -197.34385171 801.57072044 -196.25463867 804.13037109 C-195.59463867 804.13037109 -194.93463867 804.13037109 -194.25463867 804.13037109 C-192.80932617 805.63427734 -192.80932617 805.63427734 -191.12963867 807.69287109 C-188.0806011 811.28819456 -184.85951731 814.37152028 -181.24682617 817.39208984 C-179.71232602 818.73101645 -178.2431624 820.14507377 -176.80541992 821.58740234 C-163.42281225 834.92902194 -146.73151172 845.98297196 -130.25463867 855.13037109 C-129.4725 855.56591309 -128.69036133 856.00145508 -127.88452148 856.45019531 C-115.37080255 863.35473278 -102.67799675 869.22506674 -89.25463867 874.13037109 C-88.58770996 874.37480957 -87.92078125 874.61924805 -87.23364258 874.87109375 C-76.77384564 878.64846701 -66.05981705 881.53575592 -55.25463867 884.13037109 C-54.46460449 884.32018555 -53.67457031 884.51 -52.8605957 884.70556641 C0.04333287 897.08341652 56.71625418 890.26513096 106.74536133 870.13037109 C107.36233887 869.88770508 107.97931641 869.64503906 108.61499023 869.39501953 C133.8942465 859.36786745 156.82753544 843.9244339 177.68676758 826.66162109 C179.74536133 825.13037109 179.74536133 825.13037109 182.74536133 824.13037109 C182.74536133 823.47037109 182.74536133 822.81037109 182.74536133 822.13037109 C184.00317383 820.89599609 184.00317383 820.89599609 185.87036133 819.38037109 C196.16501503 810.60340169 205.46339189 800.81776548 213.74536133 790.13037109 C214.50848633 789.18419922 215.27161133 788.23802734 216.05786133 787.26318359 C222.41743936 779.25256126 228.03957416 770.82022562 233.56958008 762.22021484 C234.08322113 761.45935577 234.59686218 760.6984967 235.12606812 759.9145813 C236.86149176 757.18171567 236.86149176 757.18171567 237.66293335 754.04951477 C239.02525888 750.26372938 240.36623006 747.37368636 243.74536133 745.13037109 C252.12625848 742.76915881 261.41795805 743.74303734 270.02270508 743.95849609 C272.63582971 743.98088578 275.24900481 743.99796345 277.86219788 744.00994873 C284.02911747 744.04716739 290.19346757 744.14551762 296.35925823 744.26614261 C303.38189717 744.40053151 310.40466253 744.46631281 317.42826831 744.52648783 C331.86862161 744.6517355 346.30695554 744.86264014 360.74536133 745.13037109 C360.43538699 746.56894115 360.12274816 748.00693725 359.80899048 749.44468689 C359.63517664 750.24553176 359.4613628 751.04637663 359.28228188 751.87148952 C358.63429076 754.59765673 357.72279119 757.11210681 356.64379883 759.69677734 C356.03822144 761.15494873 356.03822144 761.15494873 355.42041016 762.64257812 C354.99139404 763.6491748 354.56237793 764.65577148 354.12036133 765.69287109 C353.67523193 766.74845215 353.23010254 767.8040332 352.77148438 768.89160156 C349.3614373 776.88921332 345.6593615 784.67898291 341.6394043 792.38476562 C340.79002752 794.04316102 339.98698667 795.72504863 339.18676758 797.40771484 C328.6314742 819.54487627 314.62755053 840.46947984 298.74536133 859.13037109 C297.85008334 860.19875621 296.95558942 861.26779871 296.06176758 862.33740234 C287.0803868 873.04638814 277.75291993 883.30342089 267.87036133 893.19287109 C266.95383789 894.12164063 266.03731445 895.05041016 265.09301758 896.00732422 C258.95602847 902.15726056 252.53499206 907.71753808 245.74536133 913.13037109 C244.70599998 914.0053814 243.67086374 914.8854909 242.64379883 915.77490234 C194.1615732 957.42758845 132.14991262 983.05419133 69.74536133 994.13037109 C68.47474854 994.35998535 68.47474854 994.35998535 67.1784668 994.59423828 C47.00105728 998.19229368 26.78533972 999.52370467 6.30786133 999.44287109 C5.31333954 999.44071594 4.31881775 999.43856079 3.29415894 999.43634033 C-31.24100815 999.31712404 -65.07861647 994.9414127 -98.25463867 985.13037109 C-98.99439941 984.91445312 -99.73416016 984.69853516 -100.49633789 984.47607422 C-143.98984847 971.65380449 -185.76376389 951.65283147 -221.48266602 923.51708984 C-223.22015672 922.15735614 -224.97738331 920.82840613 -226.74291992 919.50537109 C-235.10119445 913.18121081 -242.69270922 906.18574739 -250.24682617 898.92724609 C-252.88227128 896.39925888 -255.57076492 893.96716946 -258.34057617 891.58740234 C-262.14254929 888.29074889 -265.60059562 884.76998453 -269.00463867 881.06787109 C-269.60171631 880.42229248 -270.19879395 879.77671387 -270.81396484 879.11157227 C-280.21573744 868.88532312 -289.11861853 858.40087135 -297.25463867 847.13037109 C-297.70274902 846.51887207 -298.15085937 845.90737305 -298.61254883 845.27734375 C-306.37416007 834.6737483 -313.33407608 823.7226115 -319.9440918 812.36816406 C-321.0648353 810.4544653 -322.20643051 808.55703628 -323.36401367 806.66552734 C-345.4261168 769.78899546 -362.18494674 724.07473225 -366.25463867 681.13037109 C-366.78436279 680.97544189 -367.31408691 680.8205127 -367.85986328 680.66088867 C-376.22332745 678.18516482 -384.52054597 675.50709509 -392.81713867 672.81787109 C-393.61475616 672.55948456 -394.41237366 672.30109802 -395.23416138 672.03488159 C-416.60015051 665.10338569 -437.8363985 657.79314164 -459.07055664 650.46972656 C-463.75595534 648.85380483 -468.44242494 647.24102007 -473.12963867 645.63037109 C-473.89028625 645.36871155 -474.65093384 645.107052 -475.43463135 644.83746338 C-484.88831394 641.58951872 -494.36568887 638.4244374 -503.87573242 635.34521484 C-504.85217712 635.0289212 -505.82862183 634.71262756 -506.83465576 634.38674927 C-511.58958297 632.84858196 -516.34685407 631.31819352 -521.10766602 629.79833984 C-522.84026863 629.24110407 -524.57285411 628.68381504 -526.30541992 628.12646484 C-527.0788121 627.88218246 -527.85220428 627.63790009 -528.64903259 627.38621521 C-534.02454482 625.6511689 -539.13446196 623.51279657 -544.25463867 621.13037109 C-544.25463867 620.47037109 -544.25463867 619.81037109 -544.25463867 619.13037109 C-533.71074435 615.08631024 -523.10271207 611.31531604 -512.38085938 607.77050781 C-510.05701321 607.00202265 -507.73483043 606.22866735 -505.4128418 605.45458984 C-497.72217638 602.89752437 -490.02272131 600.40242408 -482.25341797 598.09179688 C-479.22999081 597.12246885 -476.27895696 596.0293754 -473.31196594 594.90203857 C-470.03917539 593.67447207 -466.73407605 592.54532849 -463.42651367 591.41552734 C-462.69190918 591.16371704 -461.95730469 590.91190674 -461.20043945 590.65246582 C-458.80233486 589.83114385 -456.40354679 589.01184294 -454.00463867 588.19287109 C-453.1769397 587.9099118 -452.34924072 587.62695251 -451.49645996 587.3354187 C-435.53126255 581.8790822 -419.53395451 576.52107877 -403.51974487 571.21051025 C-399.81716115 569.9825377 -396.11590108 568.75072833 -392.41625977 567.51391602 C-391.2044101 567.10900185 -391.2044101 567.10900185 -389.96807861 566.69590759 C-388.41804517 566.17780331 -386.86818822 565.65917057 -385.31854248 565.13990784 C-378.68726877 562.92408116 -372.04251578 560.81454804 -365.25463867 559.13037109 C-365.2368335 558.40946289 -365.21902832 557.68855469 -365.20068359 556.94580078 C-364.74258383 547.53831655 -362.69670739 538.90636449 -360.23632812 529.84814453 C-359.57285065 527.40143518 -358.92901704 524.95019522 -358.2878418 522.49755859 C-350.18148899 491.89504459 -337.36270924 462.88937547 -322.25463867 435.13037109 C-321.57952 433.80129735 -320.9077353 432.47040356 -320.25463867 431.13037109 C-320.90432617 430.57607422 -321.55401367 430.02177734 -322.22338867 429.45068359 C-323.05870117 428.72623047 -323.89401367 428.00177734 -324.75463867 427.25537109 C-325.58995117 426.53607422 -326.42526367 425.81677734 -327.28588867 425.07568359 C-327.93557617 424.43373047 -328.58526367 423.79177734 -329.25463867 423.13037109 C-329.25463867 422.47037109 -329.25463867 421.81037109 -329.25463867 421.13037109 C-329.91463867 421.13037109 -330.57463867 421.13037109 -331.25463867 421.13037109 C-337.24270003 414.71546218 -342.47249997 407.47756548 -347.25463867 400.13037109 C-347.63765137 399.55109863 -348.02066406 398.97182617 -348.4152832 398.375 C-361.89146253 377.74733512 -367.9293431 355.12000073 -364.79370117 330.51318359 C-360.82218483 312.89834053 -349.94458112 299.55058279 -334.94995117 290.03271484 C-319.56137077 280.9504805 -302.42824882 277.93030319 -284.75463867 277.94287109 C-283.33127197 277.9419043 -283.33127197 277.9419043 -281.87915039 277.94091797 C-273.23589345 278.00465239 -264.79600453 278.86162709 -256.25463867 280.13037109 C-257.49213867 278.95474609 -257.49213867 278.95474609 -258.75463867 277.75537109 C-261.25463867 275.13037109 -261.25463867 275.13037109 -261.25463867 273.13037109 C-261.91463867 273.13037109 -262.57463867 273.13037109 -263.25463867 273.13037109 C-265.06867721 271.04257218 -266.76578463 268.94994758 -268.44213867 266.75537109 C-268.9375415 266.11269287 -269.43294434 265.47001465 -269.94335938 264.80786133 C-271.38932078 262.92191688 -272.8236946 261.02772389 -274.25463867 259.13037109 C-274.91463867 258.26283203 -275.57463867 257.39529297 -276.25463867 256.50146484 C-291.64719004 235.44359943 -300.30642239 210.20833572 -299.87963867 184.19287109 C-299.87288116 183.36308746 -299.86612366 182.53330383 -299.85916138 181.67837524 C-299.74019128 169.20631865 -298.83467948 157.83909372 -294.25463867 146.13037109 C-293.75201734 144.7089619 -293.25074031 143.28707672 -292.75073242 141.86474609 C-287.27763446 126.9831803 -278.72862474 113.01471568 -268.25463867 101.13037109 C-267.10801758 99.82132813 -267.10801758 99.82132813 -265.93823242 98.48583984 C-262.16129465 94.23600706 -258.29063288 90.13541443 -254.25463867 86.13037109 C-253.41803711 85.28216797 -252.58143555 84.43396484 -251.71948242 83.56005859 C-250.88545898 82.71701172 -250.05143555 81.87396484 -249.19213867 81.00537109 C-248.35553711 80.15716797 -247.51893555 79.30896484 -246.65698242 78.43505859 C-241.12752003 73.13037109 -241.12752003 73.13037109 -238.25463867 73.13037109 C-238.25463867 72.47037109 -238.25463867 71.81037109 -238.25463867 71.13037109 C-236.93212891 69.94458008 -236.93212891 69.94458008 -235.06323242 68.62646484 C-234.37350342 68.13766846 -233.68377441 67.64887207 -232.97314453 67.14526367 C-232.2204126 66.62472412 -231.46768066 66.10418457 -230.69213867 65.56787109 C-229.92071533 65.0299292 -229.14929199 64.4919873 -228.35449219 63.93774414 C-221.76697342 59.39139032 -215.03098658 55.17923732 -208.09204102 51.19384766 C-206.28584348 50.14843223 -204.49841444 49.07580894 -202.71166992 47.99755859 C-142.9008 12.4665866 -68.70853152 -0.13233734 0 0 Z M-132.25463867 80.13037109 C-132.87773926 80.44474121 -133.50083984 80.75911133 -134.14282227 81.08300781 C-142.92199847 85.53127137 -151.21725672 90.42502304 -159.25463867 96.13037109 C-160.24077148 96.82904297 -161.2269043 97.52771484 -162.24291992 98.24755859 C-183.21718985 113.53619634 -200.42482193 132.38939943 -209.25463867 157.13037109 C-209.76317383 158.53996094 -209.76317383 158.53996094 -210.28198242 159.97802734 C-212.51516401 167.62435878 -212.55934768 175.27341942 -212.62963867 183.19287109 C-212.64365723 184.28116211 -212.65767578 185.36945313 -212.67211914 186.49072266 C-212.51119156 213.84841211 -197.01653698 235.78039942 -178.33374023 254.35400391 C-173.65573741 258.88590369 -168.7819602 263.03658984 -163.45776367 266.79052734 C-160.25463867 269.13037109 -160.25463867 269.13037109 -157.42651367 271.87646484 C-154.18707155 274.65251083 -151.54990903 276.76984048 -147.25463867 277.13037109 C-139.56458762 275.59545039 -132.46576176 271.85410566 -125.40991211 268.55029297 C-120.83041505 266.48944842 -116.15383229 264.86295094 -111.37963867 263.31787109 C-110.52217041 263.0382251 -109.66470215 262.7585791 -108.78125 262.47045898 C-85.19251213 254.9147792 -60.8579251 249.89027117 -36.25463867 247.13037109 C-35.35970703 247.02595703 -34.46477539 246.92154297 -33.54272461 246.81396484 C12.57060062 241.6078874 60.09594677 245.76534588 104.74536133 258.13037109 C105.69620605 258.39188965 106.64705078 258.6534082 107.62670898 258.92285156 C120.23136481 262.44078063 132.35313782 266.75016049 144.41113281 271.84228516 C151.83975095 275.0283262 151.83975095 275.0283262 159.74536133 276.13037109 C162.5579899 275.05767541 162.5579899 275.05767541 165.05786133 273.19287109 C166.00145508 272.54189453 166.94504883 271.89091797 167.91723633 271.22021484 C175.93335262 265.29670349 183.45040098 258.92101746 190.74536133 252.13037109 C191.4852832 251.45619141 192.22520508 250.78201172 192.98754883 250.08740234 C211.10041492 232.90918592 222.48633733 210.00549019 223.7199707 184.98510742 C224.48072682 156.19964555 209.55564338 132.6504711 190.49536133 112.44287109 C172.88830593 95.57614892 151.77875616 84.07409458 129.74536133 74.13037109 C128.73554199 73.66655029 128.73554199 73.66655029 127.70532227 73.19335938 C51.00278504 38.33430721 -57.83389359 42.12651137 -132.25463867 80.13037109 Z " fill="#94AAFF" transform="translate(591.254638671875,387.86962890625)"/>
<path d="M0 0 C27.72 0 55.44 0 84 0 C87.56748047 14.17904297 87.56748047 14.17904297 91.20703125 28.64453125 C92.75000979 34.77646659 94.29300747 40.90839709 95.83618164 47.0402832 C96.03257551 47.82066535 96.22896939 48.60104749 96.43131459 49.40507758 C113.4622676 117.11752878 113.4622676 117.11752878 130.5625 184.8125 C130.74276482 185.5241695 130.92302963 186.235839 131.10875702 186.96907425 C137.02876721 210.33572999 143.02018189 233.68385844 149.02361298 257.02919769 C155.32559592 281.53670721 161.59966204 306.05120607 167.82620239 330.57800293 C168.72927989 334.1349729 169.6340252 337.69151196 170.54025269 341.24768066 C171.59864971 345.40145075 172.65356288 349.55608962 173.70569611 353.71145058 C174.09397939 355.2426348 174.48347015 356.77351339 174.87422943 358.30406761 C175.40801004 360.39581315 175.93736555 362.48862924 176.46557617 364.58178711 C176.76356613 365.75535263 177.06155609 366.92891815 177.36857605 368.13804626 C178 371 178 371 178 374 C155.89 374 133.78 374 111 374 C106.49669721 355.98678883 106.49669721 355.98678883 105.07714844 349.82128906 C104.9205072 349.14262787 104.76386597 348.46396667 104.60247803 347.76473999 C104.1030961 345.59875093 103.60600939 343.43224556 103.109375 341.265625 C102.75637932 339.72865544 102.40337208 338.19168854 102.050354 336.65472412 C101.31980613 333.47191232 100.59065708 330.28878362 99.86230469 327.10546875 C98.92937549 323.0294028 97.99088663 318.9546374 97.05117416 314.88013077 C96.32421855 311.72383816 95.60114699 308.56666513 94.87915802 305.40923309 C94.53451289 303.9050194 94.18843367 302.40113352 93.84087372 300.89759064 C93.35823489 298.80796755 92.88108325 296.71716358 92.40527344 294.62597656 C91.99701324 292.84637543 91.99701324 292.84637543 91.58050537 291.03082275 C91 288 91 288 91 284 C58.66 284 26.32 284 -7 284 C-7.33 286.64 -7.66 289.28 -8 292 C-8.24018708 293.33339601 -8.49941751 294.66388781 -8.796875 295.98568726 C-9.02395142 297.00754623 -9.02395142 297.00754623 -9.25561523 298.05004883 C-9.41876221 298.76620361 -9.58190918 299.4823584 -9.75 300.22021484 C-9.924104 300.99845612 -10.09820801 301.77669739 -10.27758789 302.57852173 C-10.84798441 305.12351745 -11.42383526 307.667242 -12 310.2109375 C-12.39999684 311.98827424 -12.79973236 313.7656698 -13.19921875 315.54312134 C-14.03405693 319.25374042 -14.87150905 322.96375656 -15.7109375 326.67333984 C-16.78805369 331.43394007 -17.85941648 336.19581268 -18.92895508 340.95812035 C-19.75222362 344.62159844 -20.57808436 348.28448819 -21.40478516 351.94719315 C-21.80101019 353.70376319 -22.19652019 355.46049467 -22.59130859 357.21738815 C-23.14162995 359.66423364 -23.69533102 362.11028929 -24.25 364.55615234 C-24.41314697 365.28445251 -24.57629395 366.01275269 -24.74438477 366.76312256 C-25.88563223 371.77126446 -25.88563223 371.77126446 -27 374 C-48.78 374 -70.56 374 -93 374 C-94.20415682 370.38752953 -93.70046947 368.94713363 -92.77424622 365.28643799 C-92.32750817 363.49550154 -92.32750817 363.49550154 -91.87174511 361.66838455 C-91.53158988 360.3404081 -91.19127946 359.01247139 -90.85083008 357.68457031 C-90.49804566 356.28365951 -90.14598702 354.88256577 -89.79459858 353.48130417 C-88.83141611 349.64919295 -87.85799181 345.81974743 -86.88283205 341.99066925 C-85.85167429 337.93439909 -84.82991347 333.87576301 -83.80709839 329.81738281 C-82.06144149 322.89630029 -80.30983664 315.97674608 -78.55404663 309.05822754 C-76.03399344 299.12820375 -73.52314356 289.19587114 -71.01458919 279.26293707 C-66.91983963 263.05030923 -62.81674606 246.83980773 -58.70789051 230.6307497 C-55.21212716 216.83996796 -51.72135028 203.04792701 -48.23214149 189.25548553 C-45.91918768 180.1132192 -43.60303901 170.9717714 -41.2833786 161.83120441 C-36.65185273 143.57991164 -32.05866847 125.31899309 -27.46739006 107.05754471 C-26.29090769 102.37825222 -25.11405883 97.69905195 -23.93714905 93.01986694 C-23.14729907 89.8794579 -22.35746232 86.73904553 -21.56762695 83.59863281 C-21.37127061 82.81793057 -21.17491427 82.03722832 -20.97260773 81.23286843 C-18.60524525 71.82012171 -16.23947748 62.40697704 -13.87611175 52.99322599 C-12.38932821 47.07152701 -10.90090551 41.15024156 -9.41125035 35.22926432 C-8.53756595 31.75630163 -7.66472489 28.2831319 -6.79391861 24.80944633 C-5.83751286 20.99432582 -4.87754089 17.18010792 -3.91723633 13.3659668 C-3.63427547 12.234715 -3.3513146 11.10346321 -3.05977917 9.93793106 C-2.80127839 8.91364376 -2.54277761 7.88935646 -2.27644348 6.83403015 C-2.05261395 5.94294398 -1.82878443 5.05185781 -1.59817219 4.13376904 C-1 2 -1 2 0 0 Z M41 65 C40.79656982 66.03922607 40.59313965 67.07845215 40.38354492 68.14916992 C33.22732683 104.53725755 25.11840092 140.70334505 16.97813988 176.88102531 C16.39722695 179.46284568 15.81655355 182.04471983 15.23591614 184.62660217 C14.86237851 186.28720609 14.4888183 187.94780493 14.11523438 189.60839844 C13.9352122 190.4086592 13.75519003 191.20891996 13.56971264 192.03343105 C12.56535302 196.49579348 11.55690673 200.95720188 10.54430008 205.41769981 C9.83382 208.55122604 9.12834181 211.68587942 8.421875 214.8203125 C8.17117249 215.91689178 7.92046997 217.01347107 7.66217041 218.14328003 C7.32811188 219.63107468 7.32811188 219.63107468 6.98730469 221.14892578 C6.69856476 222.42160812 6.69856476 222.42160812 6.4039917 223.72000122 C5.88368551 226.2705225 5.88368551 226.2705225 6 230 C29.76 230 53.52 230 78 230 C77.2551169 222.88106615 77.2551169 222.88106615 75.99121094 215.96183777 C75.79248886 215.07066757 75.59376678 214.17949738 75.38902283 213.26132202 C75.17298904 212.31552277 74.95695526 211.36972351 74.734375 210.39526367 C74.50484634 209.37222641 74.27531769 208.34918915 74.03883362 207.29515076 C73.54119532 205.08006823 73.04132673 202.86548581 72.53945923 200.65135765 C71.73424234 197.09844007 70.9351271 193.54419599 70.13745117 189.98957825 C68.4303677 182.38766474 66.71558332 174.78749906 65 167.1875 C62.76547763 157.28635652 60.53477479 147.38436899 58.3125 137.48046875 C58.04156525 136.27353237 57.77063049 135.06659599 57.4914856 133.82308578 C52.36300263 110.94156572 47.57552434 87.99802431 43 65 C42.34 65 41.68 65 41 65 Z " fill="#497BFF" transform="translate(1261,729)"/>
<path d="M0 0 C0.86383301 0.04253906 1.72766602 0.08507812 2.61767578 0.12890625 C33.95043077 1.7827414 62.09169069 9.47996712 85 32 C85.69867187 32.68578125 86.39734375 33.3715625 87.1171875 34.078125 C108.45989316 56.50042278 109.16550494 86.9084508 109.12939453 116.02075195 C109.13075284 117.88176508 109.13253517 119.74277793 109.13470459 121.60379028 C109.13922377 126.60908183 109.1375134 131.61435254 109.1343255 136.6196444 C109.13177811 141.87038745 109.13414558 147.12112882 109.13571167 152.37187195 C109.13752436 161.17166461 109.13514857 169.97144885 109.13037109 178.77124023 C109.12490818 188.95131548 109.12670939 199.13137076 109.1321975 209.31144553 C109.13672813 218.0658486 109.13738009 226.82024565 109.13475883 235.57464951 C109.13319861 240.79809948 109.1329958 246.02154003 109.13629532 251.2449894 C109.13917403 256.14277337 109.13719837 261.04053138 109.13140106 265.93831253 C109.13007441 267.73871124 109.13046598 269.53911211 109.13266373 271.33950996 C109.13537837 273.78812222 109.13199048 276.23665014 109.12698364 278.68525696 C109.12921436 279.40458871 109.13144509 280.12392046 109.13374341 280.86505014 C109.11415157 285.77169685 109.11415157 285.77169685 108 288 C86.88 288 65.76 288 44 288 C43.67 275.46 43.34 262.92 43 250 C41.02 253.96 39.04 257.92 37 262 C34.31452198 265.67753605 31.23380444 268.79970649 28 272 C27.40832031 272.62519531 26.81664063 273.25039062 26.20703125 273.89453125 C8.38139716 291.32666349 -18.6102897 293.45291236 -42.02478027 293.30352783 C-67.36182866 292.98527539 -90.60669685 284.9004729 -108.59521484 266.53857422 C-126.70518024 246.70385021 -130.97635667 221.78192058 -130.14794922 195.85400391 C-129.02467656 174.18559231 -119.51278008 155.02172805 -104 140 C-74.3091992 113.94135975 -36.77075426 114.52719353 0.45404053 114.79400635 C5.26163751 114.82511052 10.06928378 114.83848447 14.87695312 114.85351562 C24.25142921 114.885355 33.62568976 114.9363189 43 115 C42.91782813 110.91592173 42.80511389 106.83319912 42.6875 102.75 C42.66494141 101.61046875 42.64238281 100.4709375 42.61914062 99.296875 C42.25323616 87.58793199 40.61941159 75.23441805 32.40234375 66.25390625 C20.22593645 55.1314932 4.40624159 54.26910059 -11.30859375 54.6484375 C-22.48657297 55.16712857 -32.51803854 57.93978985 -42 64 C-42.69609375 64.29648437 -43.3921875 64.59296875 -44.109375 64.8984375 C-46.49370038 66.28765187 -46.93604222 67.48685834 -48 70 C-49.25225434 72.13525419 -50.50996037 74.2666411 -51.78125 76.390625 C-53.46519303 79.77957655 -53.46519303 79.77957655 -55 87 C-75.79 87 -96.58 87 -118 87 C-116.08351894 62.08574617 -107.06019384 42.16965262 -88.1875 25.6875 C-80.41805739 19.4759925 -68.26910864 10 -58 10 C-58 9.34 -58 8.68 -58 8 C-39.35212321 1.97456855 -19.62020219 -1.08036512 0 0 Z M-57.46875 172.03515625 C-65.13778603 181.87578157 -66.85680711 193.58485895 -65.6015625 205.7578125 C-63.50063388 217.08099923 -58.34149745 225.1950223 -49 231.6875 C-32.62647307 241.56042613 -12.62080304 241.5572936 5.5 237.1484375 C18.87609284 232.95134714 30.34131012 225.36756159 37.8203125 213.26171875 C42.17876935 204.90560445 43.15758465 196.39321304 43.09765625 187.1015625 C43.0962413 186.26660248 43.09482635 185.43164246 43.09336853 184.57138062 C43.08780174 181.92254958 43.07525547 179.2738052 43.0625 176.625 C43.0574807 174.82161581 43.05291855 173.01823029 43.04882812 171.21484375 C43.0378432 166.80986279 43.02060163 162.40494606 43 158 C33.68926866 157.93014259 24.37862912 157.87700877 15.0676918 157.84456348 C10.74311236 157.82898253 6.41871371 157.80788467 2.09423828 157.77368164 C-2.08792113 157.74081546 -6.26990788 157.72309024 -10.45218658 157.71536827 C-12.03879764 157.70987323 -13.62540046 157.69914443 -15.21193695 157.68280983 C-31.35282659 157.52340683 -45.94808423 159.61783488 -57.46875 172.03515625 Z " fill="#93A8FF" transform="translate(2150,815)"/>
<path d="M0 0 C10.704375 -0.020625 21.40875 -0.04125 32.4375 -0.0625 C35.82185303 -0.071604 39.20620605 -0.08070801 42.69311523 -0.09008789 C45.35660767 -0.09300674 48.02010055 -0.09555537 50.68359375 -0.09765625 C51.72834618 -0.10157631 51.72834618 -0.10157631 52.79420471 -0.10557556 C54.83601779 -0.11285608 56.87785168 -0.11333839 58.91967773 -0.11352539 C60.64842384 -0.11685631 60.64842384 -0.11685631 62.41209412 -0.12025452 C65 0 65 0 66 1 C66.09498646 3.43396019 66.12558417 5.83942952 66.11352539 8.27368164 C66.11367142 9.03460617 66.11381744 9.7955307 66.1139679 10.57951355 C66.11326862 13.10642298 66.10547555 15.63325962 66.09765625 18.16015625 C66.09579212 19.9075059 66.0943682 21.65485607 66.09336853 23.40220642 C66.08954293 28.01031934 66.07971229 32.61840095 66.06866455 37.22650146 C66.05845134 41.92508521 66.0538711 46.62367399 66.04882812 51.32226562 C66.03809005 60.54819087 66.02101313 69.77409284 66 79 C66.56598876 78.99907821 67.13197752 78.99815641 67.71511745 78.99720669 C81.46835635 78.97515035 95.22159216 78.95865167 108.97484493 78.94818783 C115.6257353 78.94295826 122.27660786 78.93585928 128.92749023 78.92456055 C135.34002877 78.91373429 141.75255504 78.90772372 148.16510201 78.90512276 C150.61764278 78.90326803 153.07018285 78.89964653 155.52271843 78.89426994 C158.94476677 78.88706298 162.36676371 78.88600891 165.78881836 78.88647461 C166.81380432 78.88287933 167.83879028 78.87928406 168.89483643 78.87557983 C169.82176804 78.8769545 170.74869965 78.87832916 171.70372009 78.87974548 C172.51397613 78.87882369 173.32423216 78.8779019 174.1590414 78.87695217 C176 79 176 79 177 80 C177.09381302 81.84118029 177.11743954 83.68597641 177.11352539 85.52954102 C177.11340454 86.72728149 177.11328369 87.92502197 177.11315918 89.15905762 C177.10804321 90.42785767 177.10292725 91.69665771 177.09765625 93.00390625 C177.09664917 94.16273315 177.09564209 95.32156006 177.09460449 96.51550293 C177.08935327 100.86451195 177.07539216 105.21350692 177.0625 109.5625 C177.041875 119.276875 177.02125 128.99125 177 139 C140.37 139 103.74 139 66 139 C66.06146087 164.37412866 66.06146087 164.37412866 66.16015625 189.74804688 C66.20868157 200.09789827 66.25313101 210.44765161 66.27099609 220.79760742 C66.28402697 228.33599501 66.31102814 235.8741829 66.35461307 243.412458 C66.37719576 247.40176968 66.39291261 251.39083534 66.39188385 255.3802166 C66.39113533 259.14044666 66.40916206 262.90013357 66.44116783 266.66022301 C66.45365706 268.68737394 66.44661775 270.71461622 66.43885803 272.74179077 C66.53957909 281.60294711 68.01344958 288.20738663 73.3125 295.375 C79.86050389 301.77072473 87.86921625 302.14249095 96.55395508 302.20532227 C97.40324585 302.21522186 98.25253662 302.22512146 99.12756348 302.23532104 C101.92485805 302.26681909 104.72216959 302.2916471 107.51953125 302.31640625 C109.46295097 302.33698588 111.40636632 302.35798262 113.34977722 302.37937927 C118.45755463 302.4344957 123.56537174 302.48395088 128.67321777 302.53222656 C134.80568521 302.59136456 140.93808032 302.65753503 147.07048798 302.72252655 C156.38028103 302.82040482 165.69012111 302.90935067 175 303 C175 322.47 175 341.94 175 362 C149.9364507 362.12032643 149.9364507 362.12032643 139.16796875 362.14648438 C131.84970489 362.16434624 124.53155474 362.18536737 117.21337891 362.22631836 C111.30650087 362.25916129 105.39974496 362.27690513 99.49278259 362.28463173 C97.25078919 362.29013081 95.00880169 362.30086772 92.76686096 362.31719017 C66.0729809 362.50362349 41.77860189 358.19441521 21.6875 339.3125 C4.85826362 321.43143635 -0.5356155 299.28016728 -0.34057617 275.23046875 C-0.33972694 273.730591 -0.3402108 272.230712 -0.34190369 270.73083496 C-0.34275352 266.71526818 -0.32529489 262.6999782 -0.30418181 258.68447495 C-0.28524327 254.46715503 -0.2836512 250.24982659 -0.28010559 246.0324707 C-0.27083501 238.07143386 -0.24628987 230.11052274 -0.21605712 222.1495409 C-0.17603717 211.37412812 -0.16001787 200.59868019 -0.14255047 189.82321167 C-0.11446428 172.88204721 -0.05466193 155.94114787 0 139 C-25.74 139 -51.48 139 -78 139 C-78 119.2 -78 99.4 -78 79 C-52.26 79 -26.52 79 0 79 C0 52.93 0 26.86 0 0 Z " fill="#C6C8FF" transform="translate(2926,741)"/>
<path d="M0 0 C8.32728947 -0.02312684 16.65456563 -0.04091683 24.98187923 -0.05181217 C28.84820118 -0.05704026 32.71450121 -0.06413654 36.58081055 -0.07543945 C40.30903401 -0.086271 44.03723634 -0.0922774 47.76547432 -0.09487724 C49.19089656 -0.09673101 50.61631759 -0.10035071 52.04173088 -0.10573006 C54.03163408 -0.11294393 56.02155834 -0.11340808 58.01147461 -0.11352539 C59.14620712 -0.115746 60.28093964 -0.11796661 61.45005798 -0.12025452 C64 0 64 0 65 1 C65.10336147 3.33174861 65.14159616 5.6342199 65.13803101 7.96670532 C65.14085229 8.70426634 65.14367357 9.44182736 65.14658034 10.20173872 C65.15496491 12.69260836 65.15626794 15.18343377 65.15771484 17.67431641 C65.16238069 19.45306016 65.16752386 21.23180272 65.17311096 23.01054382 C65.18441713 26.85306309 65.19283954 30.69557448 65.19923019 34.53810501 C65.20990017 40.62482853 65.23014665 46.71149624 65.25234985 52.79818726 C65.31429383 70.11120011 65.36815678 87.42421118 65.40136719 104.73730469 C65.41977284 114.29036047 65.44879139 123.84332413 65.4893719 133.39631212 C65.51035909 138.44881821 65.52588719 143.50120857 65.52817917 148.55376053 C65.53034313 153.3193495 65.54638872 158.08469837 65.57256889 162.850214 C65.57969991 164.58868773 65.58189341 166.32719076 65.57846642 168.06567574 C65.54782208 186.58613121 67.27276256 205.20319886 81 219 C92.58681137 228.71138196 107.24647784 231.28498419 122 230 C133.57694263 228.41177998 144.107529 224.14698608 152.15234375 215.44140625 C163.46902521 200.48807451 164.4507263 183.40623918 164.43237305 165.40649414 C164.44141189 163.5914901 164.45174423 161.77649211 164.46325684 159.96150208 C164.49060393 155.08236407 164.50008073 150.20334257 164.50611091 145.32413793 C164.51555319 140.20721103 164.54176088 135.09036921 164.56611633 129.97349548 C164.60962503 120.305453 164.63826768 110.63742718 164.66143972 100.9693169 C164.68857562 89.95340975 164.73248165 78.93758884 164.77772844 67.92174351 C164.87035062 45.28120924 164.94213356 22.64064792 165 0 C173.31000792 -0.04628625 181.61996221 -0.0818502 189.93006706 -0.10362434 C193.78854797 -0.11407343 197.64694085 -0.128253 201.50537109 -0.15087891 C205.22712192 -0.1725674 208.94878794 -0.18456014 212.67059708 -0.18975449 C214.09241191 -0.19345745 215.51422197 -0.20068819 216.93600082 -0.21146011 C218.92327114 -0.22592119 220.91062631 -0.22681646 222.89794922 -0.22705078 C224.03046112 -0.231492 225.16297302 -0.23593323 226.32980347 -0.24050903 C229 0 229 0 231 2 C231.25168228 4.91209602 231.25168228 4.91209602 231.25396729 8.72268677 C231.25864726 9.77178217 231.25864726 9.77178217 231.26342177 10.84207141 C231.27143239 13.19834686 231.26506572 15.55436692 231.25878906 17.91064453 C231.26149811 19.59611665 231.26505856 21.28158759 231.26940918 22.96705627 C231.27856106 27.56140726 231.27497341 32.15566882 231.26865101 36.75002146 C231.26358722 41.57414396 231.26828521 46.39825879 231.27142334 51.22238159 C231.27506956 59.34846362 231.27025476 67.47450941 231.26074219 75.60058594 C231.24993683 84.93757619 231.25332232 94.27447854 231.264395 103.61146653 C231.27354613 111.65513509 231.27471296 119.69877754 231.26951766 127.74244964 C231.26643012 132.53308853 231.26589679 137.32368655 231.27259064 142.11432266 C231.3236511 184.69141406 231.34402646 224.98398031 200.375 258 C186.38325732 271.50175947 168.740605 280.31484875 150 285 C148.1128125 285.47953125 148.1128125 285.47953125 146.1875 285.96875 C125.36825155 290.57224496 99.65156636 290.11132556 79 285 C78.31921387 284.83371094 77.63842773 284.66742187 76.93701172 284.49609375 C61.90680577 280.65950135 48.03350689 273.80646596 36 264 C35.16082031 263.32453125 34.32164062 262.6490625 33.45703125 261.953125 C12.92880007 244.51208518 2.11899571 218.2917488 -0.19162536 191.80324471 C-0.34025378 189.5622372 -0.46237414 187.32185223 -0.57003784 185.07850647 C-0.61103729 184.25629327 -0.65203674 183.43408007 -0.6942786 182.58695132 C-1.09009025 174.05502643 -1.14111376 165.53336514 -1.12939453 156.99389648 C-1.13075465 155.28992679 -1.13253797 153.58595739 -1.13470459 151.88198853 C-1.13920053 147.32319989 -1.13752382 142.76443428 -1.1343255 138.20564532 C-1.13176788 133.41403825 -1.13414817 128.62243296 -1.13571167 123.83082581 C-1.13752053 115.80819346 -1.13515781 107.78557039 -1.13037109 99.76293945 C-1.12489929 90.48482322 -1.12671728 81.20672886 -1.1321975 71.92861313 C-1.13672775 63.93845413 -1.13738056 55.94830173 -1.13475883 47.95814186 C-1.13319962 43.19529585 -1.13299323 38.43246015 -1.13629532 33.66961479 C-1.13917379 29.20842961 -1.13719885 24.74727294 -1.13140106 20.28609085 C-1.13007469 18.64694453 -1.13046551 17.00779582 -1.13266373 15.36865044 C-1.13537922 13.13920234 -1.13198957 10.9098468 -1.12698364 8.68040466 C-1.12660662 7.43116431 -1.12622959 6.18192396 -1.12584114 4.89482784 C-1 2 -1 2 0 0 Z " fill="#ACB8FF" transform="translate(2309,820)"/>
<path d="M0 0 C0.58990723 0.27859863 1.17981445 0.55719727 1.78759766 0.84423828 C28.40406863 13.48034066 48.31009502 30.75895665 58.5390625 59.12109375 C62.26419559 70.11766558 64.58238189 81.35236224 64 93 C63 94 63 94 60.48802185 94.12025452 C59.37105423 94.11803391 58.25408661 94.11581329 57.10327148 94.11352539 C55.84203964 94.11344986 54.5808078 94.11337433 53.28135681 94.11329651 C51.89460206 94.1081891 50.50784771 94.10297309 49.12109375 94.09765625 C47.71004791 94.09579201 46.29900143 94.09436814 44.88795471 94.09336853 C41.16759465 94.08954379 37.4472734 94.0797139 33.72692871 94.06866455 C29.93319219 94.05844948 26.13944942 94.05387071 22.34570312 94.04882812 C14.89711769 94.03809158 7.44856428 94.0210157 0 94 C-0.25612061 92.91533447 -0.51224121 91.83066895 -0.77612305 90.71313477 C-1.12515662 89.26831177 -1.4745405 87.82357336 -1.82421875 86.37890625 C-1.99143433 85.66657837 -2.1586499 84.95425049 -2.33093262 84.22033691 C-5.25348641 72.24507829 -11.34155835 63.46700967 -21.6875 56.8125 C-36.73912569 48.2049954 -55.14525407 46.69568188 -72 50.0625 C-84.32426227 53.47167904 -94.06646003 59.89695074 -101.1875 70.4375 C-108.43723955 83.58075946 -108.60429108 97.87405443 -108.53125 112.46875 C-108.53395412 114.40295607 -108.53784411 116.33716081 -108.54284668 118.2713623 C-108.54869855 122.29871739 -108.54031952 126.32571435 -108.52148438 130.35302734 C-108.49869759 135.4697802 -108.51184407 140.58569328 -108.53577423 145.70241547 C-108.55034988 149.68859992 -108.54557284 153.67459102 -108.53526306 157.66078186 C-108.53262813 159.54549768 -108.53574907 161.43023209 -108.54518127 163.31492615 C-108.61275717 180.60434012 -107.06385454 197.41461238 -95.19140625 211.08203125 C-83.61200023 222.13181787 -67.86164478 225.51922284 -52.32861328 225.3515625 C-36.98140717 224.85031558 -23.3636481 220.24256021 -12.19140625 209.46484375 C-5.41541852 201.84336736 -3.16959881 193.79140132 -1.54296875 183.9921875 C-1 181 -1 181 0 180 C1.9943173 179.90594858 3.99199543 179.88256751 5.98852539 179.88647461 C7.26977798 179.88655014 8.55103058 179.88662567 9.87110901 179.88670349 C11.27995848 179.89181091 12.68880756 179.89702691 14.09765625 179.90234375 C15.53112234 179.90420798 16.96458907 179.90563186 18.39805603 179.90663147 C22.17759957 179.91045628 25.9571049 179.92028623 29.7366333 179.93133545 C33.59069298 179.94155037 37.44475882 179.94612926 41.29882812 179.95117188 C48.86590287 179.96190854 56.43294609 179.97898451 64 180 C64.01310667 181.41061916 64.02235191 182.82127444 64.0300293 184.23193359 C64.03560349 185.01748627 64.04117767 185.80303894 64.04692078 186.61239624 C63.55746929 211.51855304 51.99270993 234.54965679 35.0625 252.3125 C10.65451708 275.55123823 -21.65186915 283.22381901 -54.375 283.25 C-55.13255585 283.25067474 -55.89011169 283.25134949 -56.67062378 283.25204468 C-68.34840191 283.2355343 -79.60147809 282.75604433 -91 280 C-91.71317383 279.83371094 -92.42634766 279.66742187 -93.16113281 279.49609375 C-119.59498523 273.1321703 -142.78690463 257.57227566 -158 235 C-158.55171875 234.20335937 -159.1034375 233.40671875 -159.671875 232.5859375 C-164.41369668 225.27766595 -167.26574487 217.22197561 -170 209 C-170.32097656 208.03578125 -170.64195313 207.0715625 -170.97265625 206.078125 C-176.83740895 185.68411058 -175.31787082 163.03649545 -175.26074219 142.02319336 C-175.24933924 137.78547189 -175.25612699 133.54800136 -175.26762104 129.31028843 C-175.35669073 90.67187311 -174.24122865 54.48787033 -146 25 C-145.31292969 24.23816406 -144.62585937 23.47632813 -143.91796875 22.69140625 C-134.72265786 12.84781741 -123.04329345 6.73105788 -111 1 C-110.41025391 0.68192383 -109.82050781 0.36384766 -109.21289062 0.03613281 C-104.03790888 -2.71679204 -98.95172731 -4.3147451 -93.25 -5.625 C-92.34258057 -5.83664795 -91.43516113 -6.0482959 -90.50024414 -6.26635742 C-62.03696073 -12.59672549 -26.78635514 -12.85264574 0 0 Z " fill="#7999FF" transform="translate(1923,825)"/>
<path d="M0 0 C0.71430176 0.15758789 1.42860352 0.31517578 2.16455078 0.47753906 C6.70755364 1.55730016 10.80186442 3.11611129 15.0625 5.0625 C15.77204834 5.37743408 16.48159668 5.69236816 17.21264648 6.0168457 C27.21232846 10.47233848 36.61929827 14.97185 45.0625 22.0625 C45.92101563 22.78308594 46.77953125 23.50367188 47.6640625 24.24609375 C66.92347758 41.03262321 78.37717499 63.57876563 81.0625 89.0625 C81.0888255 90.97289911 81.09576786 92.88362948 81.08691406 94.79418945 C81.08338928 95.78167679 81.0798645 96.76916412 81.07623291 97.78657532 C81.07170105 98.53763046 81.06716919 99.28868561 81.0625 100.0625 C72.86559439 100.0856271 64.66870232 100.10341696 56.47177219 100.11431217 C52.66598423 100.1195402 48.86021852 100.12663638 45.05444336 100.13793945 C41.38457456 100.1487712 37.71472722 100.15477744 34.04484367 100.15737724 C32.64175008 100.15923097 31.23865771 100.1628506 29.8355732 100.16823006 C27.8768032 100.17544419 25.9180118 100.17590809 23.95922852 100.17602539 C22.84226089 100.178246 21.72529327 100.18046661 20.57447815 100.18275452 C18.0625 100.0625 18.0625 100.0625 17.0625 99.0625 C16.6472725 96.77426787 16.25582925 94.48170775 15.875 92.1875 C13.70597337 80.53799637 8.50462052 71.42082678 -1.18359375 64.4453125 C-12.04344307 57.46025742 -23.40581676 54.88396348 -36.125 54.875 C-37.46788086 54.85663086 -37.46788086 54.85663086 -38.83789062 54.83789062 C-53.36740846 54.80641875 -67.25124619 58.84890742 -77.9375 69.0625 C-91.21784332 83.21238961 -91.25889776 100.51790014 -91.2734375 118.82421875 C-91.27987969 120.74314977 -91.28660906 122.66207985 -91.29360962 124.58100891 C-91.30553366 128.59105706 -91.30929555 132.60101938 -91.30810547 136.61108398 C-91.3079027 141.70662222 -91.33518385 146.80160017 -91.36964989 151.89700603 C-91.39207517 155.85828595 -91.39593824 159.81943441 -91.39488602 163.78077126 C-91.39721935 165.65713236 -91.40591205 167.53349838 -91.42155075 169.40979576 C-91.53950045 185.02333552 -90.56986498 200.03472637 -80.9375 213.0625 C-80.32261719 213.90296875 -79.70773437 214.7434375 -79.07421875 215.609375 C-70.71519144 225.20621074 -57.26347447 229.92536568 -44.9375 231.0625 C-27.18832282 232.19215293 -10.61684547 229.60093899 3.4375 217.875 C11.78514732 209.82213317 14.67388367 201.17331594 16.51953125 190.0546875 C17.0625 187.0625 17.0625 187.0625 18.0625 186.0625 C20.02619153 185.9684933 21.99329199 185.94506619 23.95922852 185.94897461 C25.22046036 185.94905014 26.4816922 185.94912567 27.78114319 185.94920349 C29.16789794 185.9543109 30.55465229 185.95952691 31.94140625 185.96484375 C33.35245209 185.96670799 34.76349857 185.96813186 36.17454529 185.96913147 C39.89490535 185.97295621 43.6152266 185.9827861 47.33557129 185.99383545 C51.12930781 186.00405052 54.92305058 186.00862929 58.71679688 186.01367188 C66.16538231 186.02440842 73.61393572 186.0414843 81.0625 186.0625 C81.07462545 187.63922221 81.08320658 189.21597188 81.09033203 190.79272461 C81.09549835 191.67077255 81.10066467 192.5488205 81.10598755 193.45347595 C80.75762725 214.35326031 72.39108259 235.19920832 59.0625 251.0625 C58.47984375 251.79082031 57.8971875 252.51914063 57.296875 253.26953125 C38.75816545 275.50819334 10.14476516 285.8398122 -17.87670898 288.87823486 C-24.13220782 289.4375688 -30.41223195 289.40717001 -36.6875 289.375 C-37.4300705 289.37317719 -38.17264099 289.37135437 -38.93771362 289.36947632 C-50.48601966 289.32187586 -61.67625996 288.785351 -72.9375 286.0625 C-73.65067383 285.89621094 -74.36384766 285.72992187 -75.09863281 285.55859375 C-101.82433606 279.1244075 -124.2230747 263.4794938 -139.9375 241.0625 C-140.51242187 240.24265625 -141.08734375 239.4228125 -141.6796875 238.578125 C-159.01647504 211.80940642 -157.27757389 178.36355528 -157.19824219 147.82446289 C-157.18683962 143.38825166 -157.19362331 138.95228011 -157.20512104 134.51607704 C-157.2940531 94.16460056 -154.98053719 57.32180381 -124.9375 27.0625 C-114.13858082 17.17488202 -101.47247982 10.41055698 -87.9375 5.0625 C-86.82375 4.56363281 -85.71 4.06476562 -84.5625 3.55078125 C-80.84325914 2.02380844 -77.1541655 0.9122623 -73.25 0 C-72.52594971 -0.16918945 -71.80189941 -0.33837891 -71.0559082 -0.51269531 C-47.84261244 -5.63229608 -23.16589741 -5.11765039 0 0 Z " fill="#618AFF" transform="translate(1624.9375,818.9375)"/>
<path d="M0 0 C52.14 0 104.28 0 158 0 C158.03738281 20.67398438 158.07476563 41.34796875 158.11328125 62.6484375 C158.14354889 75.72787099 158.17454843 88.80729656 158.20898438 101.88671875 C158.22703404 108.75699812 158.24489793 115.62727794 158.26245117 122.49755859 C158.2657627 123.78914228 158.2657627 123.78914228 158.26914114 125.10681856 C158.3044933 139.00067948 158.32936174 152.89454034 158.35034702 166.78842954 C158.37212371 181.0515303 158.40519189 195.31457279 158.44870156 209.57762396 C158.47518608 218.37586831 158.49290501 227.17404007 158.49934604 235.9723223 C158.50460972 242.0088903 158.52085955 248.04536704 158.54566566 254.0818861 C158.55964716 257.56257741 158.56886407 261.04310547 158.56500816 264.5238266 C158.56335471 268.30402859 158.58006227 272.08372807 158.60127258 275.86386108 C158.59642501 276.95532578 158.59157743 278.04679047 158.58658296 279.17132986 C158.67418441 288.64916473 160.41618477 296.29818589 166 304 C166 304.66 166 305.32 166 306 C166.55945312 306.27714844 167.11890625 306.55429688 167.6953125 306.83984375 C169.2610305 307.62801027 170.81817696 308.43339077 172.3671875 309.25390625 C173.60855469 309.90166016 173.60855469 309.90166016 174.875 310.5625 C175.69742188 310.99691406 176.51984375 311.43132812 177.3671875 311.87890625 C182.93044233 314.2478293 188.72164769 314.16211078 194.66748047 314.20532227 C195.51691727 314.21522186 196.36635406 314.22512146 197.24153137 314.23532104 C200.03338895 314.26676567 202.8252635 314.29162573 205.6171875 314.31640625 C207.55917794 314.33699051 209.50116404 314.35798736 211.44314575 314.37937927 C216.54268881 314.43444796 221.64227129 314.48392402 226.74188232 314.53222656 C232.86686493 314.5914086 238.99177584 314.65755257 245.11669922 314.72252655 C254.41108885 314.82034466 263.70552548 314.90933161 273 315 C273 334.47 273 353.94 273 374 C248.34645186 374.16043524 248.34645186 374.16043524 237.71875 374.1953125 C230.50834156 374.21908853 223.29813909 374.2470058 216.08789062 374.30175781 C210.2652742 374.34568855 204.44287911 374.36923532 198.62010956 374.37950897 C196.41489942 374.38681656 194.20969938 374.4010822 192.00458527 374.42292023 C163.73926156 374.69133407 137.78151959 369.73333589 116.8125 349.375 C98.03151569 330.27847088 91.79120033 305.17541952 91.87974548 278.94551086 C91.87889106 277.99689515 91.87803663 277.04827943 91.87715632 276.07091779 C91.87552338 272.92657179 91.88098671 269.78228044 91.88647461 266.63793945 C91.88675698 264.37033591 91.88659777 262.10273227 91.8860321 259.83512878 C91.88574608 253.70373624 91.89161135 247.5723634 91.89860606 241.44097543 C91.90487201 235.02414313 91.90544596 228.60731035 91.90663147 222.19047546 C91.90938296 211.42816769 91.91562234 200.66586849 91.92456055 189.90356445 C91.93375332 178.82316117 91.94082501 167.74275985 91.94506836 156.66235352 C91.94533108 155.97823449 91.94559381 155.29411547 91.94586449 154.58926556 C91.94716962 151.15690617 91.94843331 147.72454675 91.94967639 144.29218733 C91.9600266 115.8614522 91.97845278 87.43072898 92 59 C61.64 59 31.28 59 0 59 C0 39.53 0 20.06 0 0 Z " fill="#C4C7FF" transform="translate(2564,729)"/>
<path d="M0 0 C13.89923871 -0.04670164 27.79846527 -0.0818469 41.6977663 -0.10362434 C48.1513217 -0.11407483 54.60482449 -0.12825713 61.05834961 -0.15087891 C67.28286953 -0.17256214 73.50733877 -0.18455909 79.73189354 -0.18975449 C82.11021918 -0.19345838 84.48854195 -0.20069084 86.86684608 -0.21146011 C90.19034511 -0.22591487 93.51363295 -0.22798046 96.8371582 -0.22705078 C97.8269014 -0.23424133 98.81664459 -0.24143188 99.83638 -0.24884033 C100.74081848 -0.246091 101.64525696 -0.24334167 102.57710266 -0.24050903 C103.75653678 -0.24327441 103.75653678 -0.24327441 104.95979786 -0.24609566 C107 0 107 0 110 2 C110.85961914 4.04370117 110.85961914 4.04370117 111.53515625 6.54296875 C111.91317383 7.90711914 111.91317383 7.90711914 112.29882812 9.29882812 C112.6768457 10.7287207 112.6768457 10.7287207 113.0625 12.1875 C113.31837891 13.12142578 113.57425781 14.05535156 113.83789062 15.01757812 C114.33869521 16.84699538 114.83450398 18.67778864 115.32495117 20.51000977 C115.89448198 22.61078545 116.50162374 24.7013113 117.1171875 26.7890625 C117.97878225 29.92282749 118.57802727 32.97532367 119.0625 36.1875 C119.21847656 37.19167969 119.37445312 38.19585938 119.53515625 39.23046875 C120.82858935 49.719233 121.20147791 60.12346204 121.1875 70.6875 C121.18756042 71.3914389 121.18762085 72.09537781 121.18768311 72.82064819 C121.17482861 83.3453424 120.75142355 93.60168813 119 104 C118.86722656 104.91910156 118.73445312 105.83820313 118.59765625 106.78515625 C113.21270161 140.78729839 113.21270161 140.78729839 106 148 C104.02596283 148.25447559 104.02596283 148.25447559 101.55895996 148.26069641 C100.62512985 148.26778122 99.69129974 148.27486603 98.72917175 148.28216553 C97.70157242 148.27968811 96.67397308 148.27721069 95.61523438 148.2746582 C94.53550858 148.27976913 93.45578278 148.28488007 92.34333801 148.29014587 C88.76008625 148.30409152 85.17702573 148.3030815 81.59375 148.30078125 C79.11275154 148.30466515 76.63175375 148.30899918 74.15075684 148.31376648 C68.94537197 148.32123919 63.74005492 148.32092958 58.53466797 148.31567383 C53.17814944 148.31029839 47.82181975 148.31735376 42.46533203 148.33618164 C36.01154096 148.35858013 29.557908 148.3664431 23.1040802 148.36250877 C20.6384069 148.36302385 18.17273001 148.36829628 15.70707703 148.37832069 C12.2661211 148.3905935 8.82571214 148.38394865 5.38476562 148.37231445 C3.84336662 148.38378006 3.84336662 148.38378006 2.27082825 148.39547729 C1.33699814 148.38846298 0.40316803 148.38144867 -0.55895996 148.3742218 C-1.37307091 148.37438954 -2.18718185 148.37455729 -3.02596283 148.37473011 C-3.6773951 148.25106917 -4.32882736 148.12740824 -5 148 C-5.66 147.01 -6.32 146.02 -7 145 C-6.49210938 144.030625 -5.98421875 143.06125 -5.4609375 142.0625 C1.22477695 129.12656409 6.36582463 116.3554876 9.8125 102.1875 C10.01963623 101.34034424 10.22677246 100.49318848 10.44018555 99.62036133 C14.64775459 81.35564634 14.81569439 60.34134915 11 42 C10.87109375 41.35192383 10.7421875 40.70384766 10.609375 40.03613281 C8.25149842 28.35045281 4.74243356 17.14391201 -0.2421875 6.296875 C-1.10836623 3.67154978 -0.76313361 2.58825511 0 0 Z " fill="#A4B3FF" transform="translate(850,937)"/>
<path d="M0 0 C9.46583471 5.76006112 14.91466146 12.78047247 19.06640625 22.86328125 C21.07232604 33.98701827 20.2967104 44.14807984 14.3984375 53.921875 C12.95551595 55.96827044 11.43601691 57.82219329 9.75390625 59.67578125 C9.2640625 60.21976563 8.77421875 60.76375 8.26953125 61.32421875 C1.45605204 67.96904748 -7.89147205 70.92534493 -17.24609375 71.30078125 C-28.44340876 70.81556427 -37.17684286 66.81499924 -45.15234375 59.0078125 C-52.95451739 50.31770492 -54.95265698 41.35265718 -54.61328125 29.75 C-53.98513631 20.20531541 -49.36786302 12.66789253 -42.859375 5.875 C-30.84641122 -4.23456443 -14.19992288 -6.85846615 0 0 Z " fill="#B6BEFF" transform="translate(741.24609375,522.32421875)"/>
<path d="M0 0 C7.14191239 5.85402655 12.61721842 13.83253937 14.24609375 23.0859375 C15.10038672 34.86397662 13.91375576 45.62915435 6.24609375 55.0859375 C5.58609375 55.0859375 4.92609375 55.0859375 4.24609375 55.0859375 C4.24609375 55.7459375 4.24609375 56.4059375 4.24609375 57.0859375 C-4.82915324 65.0991875 -14.20707249 67.81284667 -26.1640625 67.48828125 C-36.95900678 66.27840175 -45.82314039 61.43037942 -52.75390625 53.0859375 C-58.63072696 43.64704382 -60.71507996 35.14620397 -59.75390625 24.0859375 C-57.05646549 12.60254684 -51.26494943 4.30881492 -41.53125 -2.25 C-28.24886508 -10.20822219 -12.54935147 -8.72224428 0 0 Z " fill="#A8B6FF" transform="translate(534.75390625,521.9140625)"/>
</svg>
